<svg width="182" height="60" viewBox="0 0 182 60" fill="none" xmlns="http://www.w3.org/2000/svg">
<path d="M1.82996 25.6912C0.650829 26.8702 0.00108126 28.4389 1.49907e-07 30.1072C-0.000360221 31.7741 0.649028 33.3403 1.82888 34.5194C3.00748 35.698 4.57599 36.3461 6.24361 36.3458C6.59389 36.3468 6.95137 36.3104 7.37067 36.2295C7.49824 36.2067 7.60959 36.1787 7.72527 36.1506C7.9824 36.0811 8.23069 36.0039 8.45232 35.9216C8.57196 35.8758 8.69467 35.829 8.81846 35.7737C9.03594 35.6742 9.26622 35.5495 9.51614 35.3953C9.56731 35.3655 9.61253 35.3394 9.65902 35.3137C9.68803 35.2971 9.71722 35.2832 9.74605 35.2654L10.7953 34.3498C10.9142 34.2196 11.032 34.0709 11.1556 33.9098L11.2045 33.8462C11.2337 33.8088 11.2751 33.7599 11.3182 33.7125L11.3549 33.67L11.3908 33.6161L11.4299 33.5772C11.4989 33.5026 11.5693 33.4293 11.6403 33.3583C13.3343 31.6644 15.7273 30.7141 18.2056 30.7494C20.6734 30.7842 23.0268 31.7971 24.6631 33.53L24.7119 33.581L24.7546 33.6428C24.7924 33.6987 24.8377 33.7496 24.8818 33.7997C24.9342 33.8606 24.9856 33.9215 25.0355 33.9855L25.1234 34.0954C25.1989 34.19 25.2725 34.2819 25.351 34.3724L26.4125 35.2828C26.442 35.3028 26.4732 35.3165 26.504 35.3333L26.5826 35.3765C26.8145 35.518 27.0505 35.6569 27.3019 35.7675C27.4413 35.8346 27.5523 35.8758 27.6677 35.916C27.9187 36.0099 28.1567 36.085 28.4133 36.1501C28.5246 36.178 28.6354 36.2079 28.7517 36.2288C29.19 36.3101 29.5508 36.3468 29.8874 36.3472C31.5543 36.3468 33.1212 35.6976 34.3023 34.5167C35.4809 33.3381 36.1322 31.7699 36.1337 30.1031C36.1317 26.6633 33.33 23.864 29.8868 23.864C29.5383 23.8636 29.1809 23.9007 28.7583 23.9802C28.6351 24.0034 28.5241 24.0315 28.4129 24.06C28.1597 24.1241 27.9156 24.1998 27.683 24.2854C27.5577 24.3332 27.432 24.3798 27.3174 24.4321C27.0858 24.5382 26.8532 24.6638 26.6229 24.8097L26.4874 24.8858C26.4572 24.9033 26.426 24.9193 26.3959 24.9364L25.3335 25.8584C25.2222 25.9793 25.1161 26.117 25.0036 26.2626L24.9261 26.3613C24.9016 26.3957 24.8582 26.4455 24.8146 26.4947L24.7829 26.533L24.7422 26.5934L24.7023 26.6332C24.6324 26.7082 24.5623 26.7801 24.4904 26.852C22.7969 28.5455 20.4049 29.4958 17.9274 29.4603C15.4583 29.4257 13.1034 28.4109 11.4668 26.6781L11.418 26.6265L11.3776 26.5676C11.3393 26.5107 11.294 26.4615 11.2499 26.4096C11.1974 26.3487 11.1461 26.2873 11.0969 26.2247C11.0652 26.1894 11.0115 26.1217 10.9594 26.0547C10.8994 25.9793 10.8425 25.9049 10.7747 25.8373L10.7509 25.8134L9.73488 24.9395C9.71038 24.9245 9.56983 24.8469 9.52695 24.8218C9.27559 24.6661 9.0408 24.5395 8.81882 24.4375C8.69557 24.38 8.58404 24.3353 8.46403 24.2933C8.21988 24.2023 7.97555 24.1249 7.7177 24.0562C7.60941 24.031 7.48166 24.0014 7.35625 23.9758C6.95426 23.9023 6.591 23.8647 6.24163 23.864C4.57725 23.8629 3.00964 24.5115 1.83086 25.6903L1.82996 25.6912Z" fill="#338DE0"/>
<path d="M80.7693 24.0795H85.5555L91.3946 7.80643H87.119L83.7367 17.8894C83.4495 18.8466 83.1623 20.3463 83.1623 20.3463H83.0985C83.0985 20.3463 82.8113 18.8466 82.5243 17.8894L79.1418 7.80643H74.8662L80.7693 24.0795ZM94.0111 5.03031H98.0635V1.4248H94.0111V5.03031ZM94.0111 24.0795H98.0635V7.80643H94.0111V24.0795ZM101.414 15.9429C101.414 20.5697 104.796 24.4624 110.189 24.4624C112.518 24.4624 115.07 23.601 116.73 22.1332L115.134 19.2295C113.826 20.2825 112.135 21.0164 110.476 21.0164C108.019 21.0164 105.849 19.5486 105.594 16.7087H116.793C116.857 16.1982 116.921 15.6559 116.921 15.1452C116.921 10.8377 114.368 7.42354 109.71 7.42354C104.828 7.42354 101.414 10.9334 101.414 15.9429ZM105.689 13.9327C106.072 11.8586 107.54 10.4867 109.614 10.4867C111.433 10.4867 112.837 11.7629 112.869 13.9327H105.689ZM123.43 24.0795H127.961L130.737 14.7942C130.961 13.9327 131.12 13.0394 131.12 13.0394H131.184C131.184 13.0394 131.344 13.9327 131.599 14.7942L134.343 24.0795H138.842L143.788 7.80643H139.576L136.736 18.4956C136.481 19.357 136.385 20.2187 136.385 20.2187H136.321C136.321 20.2187 136.194 19.357 135.97 18.4956L132.971 7.80643H129.365L126.366 18.4849C126.142 19.3464 125.983 20.2081 125.983 20.2081H125.919C125.919 20.2081 125.823 19.3464 125.6 18.4849L122.76 7.80643H118.485L123.43 24.0795ZM76.6212 58.5636H80.6736V51.6715C80.6736 50.8418 80.5777 50.2675 80.5777 50.2675H80.6415C81.7904 51.7353 83.4814 52.5649 85.3321 52.5649C89.6077 52.5649 92.7667 49.2145 92.7667 44.0453C92.7667 39.0039 89.9587 35.526 85.5555 35.526C83.3538 35.526 81.3754 36.515 80.3226 38.27H80.2586C80.2586 38.27 80.3226 37.7275 80.3226 37.1213V35.9089H76.6212V58.5636ZM80.5458 44.1412C80.5458 40.5355 82.5243 39.0039 84.662 39.0039C87.0231 39.0039 88.6825 41.0141 88.6825 44.1091C88.6825 47.3319 86.8318 49.1507 84.5982 49.1507C81.9498 49.1507 80.5458 46.6618 80.5458 44.1412ZM96.2128 52.182H100.265V45.6088C100.265 42.5456 101.733 39.674 105.051 39.674C105.402 39.674 105.881 39.7059 106.04 39.7378V35.7492C105.785 35.7173 105.53 35.6855 105.275 35.6855C102.818 35.6855 100.839 37.5999 100.106 39.8973H100.042C100.042 39.8973 100.106 39.3868 100.106 38.7805V35.9089H96.2128V52.182ZM107.508 44.0453C107.508 49.055 111.497 52.5649 116.443 52.5649C121.388 52.5649 125.377 49.055 125.377 44.0453C125.377 39.0677 121.388 35.526 116.411 35.526C111.497 35.526 107.508 39.0677 107.508 44.0453ZM111.624 44.0453C111.624 41.046 113.794 38.972 116.443 38.972C119.091 38.972 121.293 41.046 121.293 44.0453C121.293 47.0766 119.091 49.1188 116.443 49.1188C113.794 49.1188 111.624 47.0766 111.624 44.0453ZM128.727 33.1328H132.78V29.5272H128.727V33.1328ZM128.727 52.3414C128.727 54.9898 126.621 55.3408 125.473 55.3408C125.185 55.3408 124.962 55.3089 124.771 55.277V58.6912C125.185 58.7551 125.6 58.787 125.983 58.787C128.217 58.787 132.78 58.1169 132.78 52.6605V35.9089H128.727V52.3414ZM136.13 44.0453C136.13 48.6721 139.512 52.5649 144.905 52.5649C147.234 52.5649 149.787 51.7034 151.446 50.2356L149.85 47.3319C148.542 48.3849 146.851 49.1188 145.192 49.1188C142.735 49.1188 140.565 47.651 140.31 44.8111H151.51C151.573 44.3007 151.637 43.7583 151.637 43.2476C151.637 38.9401 149.085 35.526 144.426 35.526C139.544 35.526 136.13 39.0358 136.13 44.0453ZM140.406 42.0352C140.789 39.9611 142.256 38.5891 144.33 38.5891C146.149 38.5891 147.553 39.8654 147.585 42.0352H140.406ZM154.03 44.0453C154.03 48.7678 157.476 52.5649 162.869 52.5649C165.485 52.5649 168.038 51.5438 169.57 49.9165L168.006 47.0447C166.794 48.2253 164.943 49.1188 163.22 49.1188C160.093 49.1188 158.146 46.7577 158.146 44.0134C158.146 41.2375 160.093 38.972 163.092 38.972C164.688 38.972 166.283 39.7059 167.304 40.7269L169.123 37.9509C167.559 36.2599 165.071 35.526 162.869 35.526C157.476 35.526 154.03 39.4187 154.03 44.0453ZM173.303 46.2151C173.303 51.6715 177.802 52.3414 180.067 52.3414C180.61 52.3414 180.993 52.2777 181.312 52.2458V48.704C180.993 48.7678 180.801 48.7678 180.578 48.7678C179.461 48.7678 177.355 48.3849 177.355 45.7047V39.3549H181.057V36.1321H177.355V31.4736H173.399V36.1321H171.197V39.3549H173.303V46.2151Z" fill="#080A1C"/>
<path d="M55.1508 30.1057C55.1508 30.1057 51.7458 25.2811 46.1658 28.4026C47.1887 27.8365 52.7413 22.1242 46.8594 17.4943C43.5025 15.1132 38.9638 16.954 38.9638 20.3256C38.9638 21.7161 40.0911 22.8433 41.4816 22.8433C42.8719 22.8433 43.9991 21.7161 43.9991 20.3256C43.9991 19.7371 43.7971 19.1957 43.4587 18.767C44.3532 19.0234 46.683 20.3231 46.7862 23.1005C46.8471 24.7371 46.0761 26.0645 44.7537 27.0876C42.6492 28.7159 39.1354 28.7104 36.7421 26.1341C33.0337 22.3518 33.6759 16.9531 36.9198 13.9497C38.5604 12.5254 40.4058 11.7142 42.6272 11.7142C44.6789 11.7142 46.5586 12.4495 48.0178 13.6708C53.4956 19.1486 58.9734 24.6264 64.4512 30.1043L64.4498 30.1057L64.4512 30.1072C58.9734 35.585 53.4956 41.0628 48.0178 46.5406C46.5586 47.7619 44.6789 48.4972 42.6272 48.4972C40.4058 48.4972 38.5604 47.686 36.9198 46.2617C33.6759 43.2583 33.0337 37.8596 36.7421 34.0774C39.1354 31.5011 42.6492 31.4955 44.7537 33.1238C46.0761 34.1469 46.8471 35.4743 46.7862 37.111C46.683 39.8883 44.3532 41.188 43.4587 41.4444C43.7971 41.0158 43.9991 40.4743 43.9991 39.8858C43.9991 38.4953 42.8719 37.3681 41.4816 37.3681C40.0911 37.3681 38.9638 38.4953 38.9638 39.8858C38.9638 43.2575 43.5025 45.0982 46.8594 42.7171C52.7413 38.0872 47.1887 32.375 46.1658 31.8088C51.7458 34.9303 55.1508 30.1057 55.1508 30.1057Z" fill="#338DE0"/>
<path d="M13.6412 37.5636C12.461 38.7438 11.8123 40.3113 11.8125 41.9785C11.8129 45.4195 14.6113 48.2207 18.0502 48.2214C19.7185 48.2212 21.2877 47.5727 22.4679 46.3925C23.6465 45.2139 24.2954 43.646 24.2954 41.9787C24.2954 38.5382 21.4942 35.7371 18.0509 35.7344C16.3865 35.736 14.8196 36.3852 13.6412 37.5636Z" fill="#338DE0"/>
<path d="M13.6412 13.6942C12.461 14.8744 11.8123 16.4418 11.8125 18.1091C11.8129 21.5501 14.6113 24.3513 18.0502 24.352C19.7185 24.3518 21.2877 23.7033 22.4679 22.5231C23.6465 21.3445 24.2954 19.7765 24.2954 18.1093C24.2954 14.6688 21.4942 11.8676 18.0509 11.8649C16.3865 11.8666 14.8196 12.5158 13.6412 13.6942Z" fill="#338DE0"/>
<path d="M25.692 1.82923C24.5118 3.00945 23.8631 4.57689 23.8633 6.24415C23.8636 9.68515 26.6621 12.4863 30.1009 12.487C31.7693 12.4869 33.3385 11.8384 34.5187 10.6581C35.6973 9.47955 36.3462 7.91158 36.3462 6.24432C36.3462 2.80386 33.545 0.00270278 30.1017 0C28.4373 0.00162167 26.8704 0.650822 25.692 1.82923Z" fill="#338DE0"/>
<path d="M25.692 49.3422C24.5118 50.5225 23.8631 52.0899 23.8633 53.7571C23.8636 57.1982 26.6621 59.9993 30.1009 60C31.7693 59.9999 33.3385 59.3514 34.5187 58.1711C35.6973 56.9926 36.3462 55.4246 36.3462 53.7573C36.3462 50.3169 33.545 47.5157 30.1017 47.513C28.4373 47.5146 26.8704 48.1638 25.692 49.3422Z" fill="#338DE0"/>
</svg>
