<svg width="24" height="24" viewBox="0 0 24 24" fill="none" xmlns="http://www.w3.org/2000/svg">
<path fill-rule="evenodd" clip-rule="evenodd" d="M3.70711 21.7071L7.41421 18H19C20.6569 18 22 16.6569 22 15V5C22 3.34315 20.6569 2 19 2H5C3.34315 2 2 3.34315 2 5V21C2 21.8909 3.07714 22.3371 3.70711 21.7071ZM7 16C6.73478 16 6.48043 16.1054 6.29289 16.2929L4 18.5858V5C4 4.44772 4.44772 4 5 4H19C19.5523 4 20 4.44772 20 5V15C20 15.5523 19.5523 16 19 16H7Z" fill="#96A0B5"/>
<mask id="mask0_4665_24332" style="mask-type:alpha" maskUnits="userSpaceOnUse" x="2" y="2" width="20" height="21">
<path fill-rule="evenodd" clip-rule="evenodd" d="M3.70711 21.7071L7.41421 18H19C20.6569 18 22 16.6569 22 15V5C22 3.34315 20.6569 2 19 2H5C3.34315 2 2 3.34315 2 5V21C2 21.8909 3.07714 22.3371 3.70711 21.7071ZM7 16C6.73478 16 6.48043 16.1054 6.29289 16.2929L4 18.5858V5C4 4.44772 4.44772 4 5 4H19C19.5523 4 20 4.44772 20 5V15C20 15.5523 19.5523 16 19 16H7Z" fill="white"/>
</mask>
<g mask="url(#mask0_4665_24332)">
<rect width="24" height="24" fill="#96A0B5"/>
</g>
</svg>
