<svg width="22" height="22" viewBox="0 0 22 22" fill="none" xmlns="http://www.w3.org/2000/svg">
<path d="M20.3969 8.61397L20.3969 8.61399L9.70877 19.3009C9.70876 19.3009 9.70876 19.3009 9.70875 19.3009C8.73827 20.2714 7.45852 20.8224 6.10474 20.8457C4.7521 20.8739 3.49948 20.3675 2.56424 19.4322C0.622219 17.4902 0.7025 14.2971 2.67885 12.3036C2.68085 12.3013 2.68295 12.2989 2.68514 12.2965L2.69315 12.2877L2.70157 12.2793L12.8506 2.13104L12.8509 2.13074C14.1597 0.824272 16.2863 0.825104 17.5952 2.13316L17.5954 2.13332C18.9002 3.43844 18.9047 5.5579 17.6089 6.86864C17.6039 6.87418 17.5983 6.88009 17.5921 6.88622L7.27324 17.2051C7.27016 17.2084 7.26707 17.2115 7.26399 17.2146L7.26324 17.2154C6.60474 17.871 5.53485 17.8711 4.87714 17.2134C4.55895 16.8957 4.38183 16.4699 4.38183 16.0196C4.38183 15.57 4.55772 15.1461 4.87389 14.8285L4.89382 14.8085L4.89793 14.8052L14.139 5.56218C14.139 5.56215 14.1391 5.56212 14.1391 5.56209C14.2665 5.43445 14.2665 5.2282 14.1389 5.10058C14.0113 4.97296 13.8048 4.97296 13.6772 5.10058L4.42116 14.3586L4.42112 14.3586C4.41552 14.3642 4.4101 14.3694 4.40496 14.3741C3.96845 14.8153 3.7293 15.3978 3.7293 16.0193C3.7293 16.6454 3.972 17.2315 4.4161 17.6758C4.87189 18.1307 5.47056 18.3589 6.07109 18.359C6.66827 18.3586 7.26261 18.1341 7.71664 17.6853C7.72108 17.6806 7.72595 17.6755 7.73124 17.6703L18.049 7.35281C18.0507 7.35099 18.0524 7.34923 18.0541 7.34754C18.0559 7.34569 18.0578 7.34376 18.0598 7.34175L18.2357 7.16584L18.2367 7.16486C18.2483 7.15328 18.2625 7.13602 18.2805 7.10745L18.2974 7.08051L18.3177 7.05593C19.6145 5.48219 19.5279 3.14252 18.0574 1.67142C18.0574 1.67137 18.0573 1.67132 18.0572 1.67126M20.3969 8.61397L12.3567 1.02556C14.126 -0.4325 16.7556 -0.3365 18.4109 1.31776L18.0572 1.67126M20.3969 8.61397C20.5246 8.48627 20.7312 8.48647 20.8585 8.61384C20.9863 8.74171 20.9857 8.94832 20.8589 9.07492L20.8586 9.07517L10.1727 19.7596L10.1727 19.7596C10.1682 19.7641 10.164 19.7685 10.1601 19.7727C9.06635 20.8617 7.63145 21.4727 6.11646 21.4986L20.3969 8.61397ZM18.0572 1.67126C16.5862 0.201237 14.2475 0.115299 12.6747 1.41142L12.6501 1.43167L12.6232 1.44864C12.5956 1.46602 12.5775 1.4807 12.5648 1.49342L2.24939 11.809M18.0572 1.67126L2.24939 11.809M2.24939 11.809C2.24873 11.8098 2.24806 11.8105 2.24738 11.8113L2.23786 11.822L2.22775 11.8322C-0.0361873 14.1027 -0.0725354 17.7177 2.10306 19.8937C3.14054 20.9312 4.52324 21.5 6.01378 21.5C6.03408 21.5 6.05125 21.4997 6.0724 21.4993L2.24939 11.809ZM10.1133 19.8312C10.1143 19.8298 10.1161 19.8271 10.1186 19.8235L10.1133 19.8312ZM2.28554 11.7629C2.28478 11.7639 2.28362 11.7656 2.28207 11.7678L2.28554 11.7629ZM4.36075 14.4103L4.36861 14.4044C4.36464 14.4074 4.36185 14.4095 4.36075 14.4103ZM4.93498 14.7763L4.9334 14.7774C4.93447 14.7767 4.93538 14.776 4.93561 14.7758L4.93557 14.7759L4.93545 14.7759L4.93498 14.7763ZM17.5953 6.88227L17.5954 6.88223C17.5954 6.88224 17.5954 6.88225 17.5953 6.88227ZM2.69513 12.2872L2.6951 12.2872C2.69511 12.2872 2.69512 12.2872 2.69513 12.2872Z" fill="#96A0B5" stroke="#96A0B5"/>
</svg>
