<svg width="22" height="22" viewBox="0 0 22 22" fill="none" xmlns="http://www.w3.org/2000/svg">
<path d="M20.3969 8.61397L20.3969 8.61399L9.70877 19.3009C9.70876 19.3009 9.70876 19.3009 9.70875 19.3009C8.7384 20.2712 7.45885 20.8223 6.10527 20.8456M20.3969 8.61397L6.09543 20.3457M20.3969 8.61397C20.5246 8.48627 20.7312 8.48647 20.8585 8.61384C20.9863 8.74171 20.9857 8.94832 20.8589 9.07492L20.8586 9.07517L10.1727 19.7596L10.1727 19.7596C10.1682 19.7641 10.164 19.7685 10.1601 19.7727C9.06636 20.8617 7.63149 21.4726 6.11651 21.4986L20.3969 8.61397ZM6.10527 20.8456C6.10483 20.8456 6.10438 20.8457 6.10394 20.8457L6.09543 20.3457M6.10527 20.8456C6.10552 20.8456 6.10575 20.8456 6.106 20.8456L6.09543 20.3457M6.10527 20.8456C4.75243 20.874 3.4996 20.3676 2.56424 19.4322C0.622218 17.4902 0.7025 14.2971 2.67885 12.3036M6.09543 20.3457C4.87762 20.3715 3.75631 19.9172 2.91779 19.0787C1.17916 17.3401 1.23805 14.4517 3.04868 12.6408C3.05116 12.6383 3.05264 12.6356 3.05511 12.6329L13.2041 2.4846C14.3175 1.37318 16.1279 1.37368 17.2418 2.48683C18.3559 3.60122 18.3559 5.41432 17.2418 6.52871M2.67885 12.3036C2.67014 12.3135 2.66331 12.322 2.65863 12.3281L2.65422 12.3339M2.67885 12.3036C2.68107 12.3013 2.68329 12.2991 2.68551 12.2969C2.6887 12.2937 2.6919 12.2904 2.6951 12.2872M2.67885 12.3036C2.68085 12.3013 2.68295 12.2989 2.68514 12.2965L2.69315 12.2877L2.70157 12.2793L12.8506 2.13104L12.8509 2.13074C14.1597 0.824273 16.2863 0.825104 17.5952 2.13316L17.5954 2.13332C18.9002 3.43843 18.9047 5.55788 17.6089 6.86862M2.65422 12.3339L2.65232 12.3363L2.65096 12.3382L2.65422 12.3339ZM2.65422 12.3339L2.66271 12.3231C2.66836 12.3162 2.67603 12.3072 2.68564 12.297C2.68861 12.2938 2.69177 12.2906 2.6951 12.2872M2.6951 12.2872L2.69514 12.2872C2.69513 12.2872 2.69512 12.2872 2.6951 12.2872ZM17.6089 6.86862C17.6185 6.85805 17.6261 6.84881 17.6316 6.84187C17.6336 6.83927 17.6355 6.8369 17.6371 6.83482C17.6387 6.83264 17.6401 6.83078 17.6412 6.82935L17.6332 6.83967C17.6254 6.84957 17.6127 6.86487 17.5955 6.88213M17.6089 6.86862C17.6044 6.87313 17.6 6.87764 17.5955 6.88213M17.6089 6.86862C17.6039 6.87417 17.5983 6.88008 17.5921 6.88622L17.2386 6.53267M17.5955 6.88213L17.2418 6.52871M17.5955 6.88213C17.5954 6.88216 17.5954 6.88219 17.5954 6.88223L17.2418 6.52871M17.2418 6.52871C17.2405 6.52995 17.2398 6.53143 17.2386 6.53267M17.2386 6.53267L17.592 6.88636M17.2386 6.53267L6.91143 16.8598L17.592 6.88636M17.592 6.88636L7.27324 17.2051M17.592 6.88636L7.26464 17.2137L7.26498 17.2134M7.27324 17.2051C7.2776 17.2005 7.28195 17.1958 7.28629 17.1908C7.29385 17.1822 7.30073 17.1738 7.30698 17.1657C7.31317 17.1576 7.31812 17.1507 7.32165 17.1456L7.32184 17.1453M7.27324 17.2051C7.27004 17.2085 7.26685 17.2118 7.26365 17.2149L7.26324 17.2154C6.60487 17.8709 5.53527 17.8711 4.87753 17.2138M7.27324 17.2051L7.26498 17.2134M7.32184 17.1453L7.32562 17.1398L7.32664 17.1383L7.32691 17.1379L7.32698 17.1378L7.327 17.1377C7.3274 17.1371 7.32489 17.1409 7.32184 17.1453ZM7.32184 17.1453C7.31838 17.1503 7.31349 17.1571 7.30738 17.1651C7.30121 17.1731 7.29442 17.1814 7.28695 17.1899C7.27964 17.1982 7.2723 17.2061 7.26498 17.2134M7.26498 17.2134L4.87753 17.2138M4.87753 17.2138C4.55909 16.896 4.38183 16.4701 4.38183 16.0196C4.38183 15.57 4.55772 15.1461 4.87389 14.8285L4.89378 14.8085L4.89791 14.8052M4.87753 17.2138L4.89791 14.8052M4.89791 14.8052L14.139 5.56218C14.139 5.56215 14.1391 5.56212 14.1391 5.56209C14.2665 5.43445 14.2665 5.22819 14.1389 5.10058C14.0113 4.97297 13.8048 4.97296 13.6772 5.10056C13.6772 5.10057 13.6772 5.10057 13.6772 5.10058L4.42116 14.3586L4.42112 14.3586C4.41552 14.3642 4.41009 14.3694 4.40495 14.3741C3.96845 14.8153 3.7293 15.3978 3.7293 16.0193C3.7293 16.6454 3.972 17.2315 4.4161 17.6758C4.87189 18.1307 5.47056 18.3589 6.07109 18.359C6.66828 18.3586 7.26262 18.1341 7.71665 17.6853C7.7211 17.6805 7.72598 17.6755 7.73129 17.6702L18.049 7.35277C18.0507 7.35098 18.0524 7.34925 18.054 7.34759C18.0558 7.34576 18.0577 7.34385 18.0597 7.34187L18.0598 7.34175L18.2357 7.16584L18.2367 7.16486C18.2483 7.15328 18.2625 7.13602 18.2805 7.10744L18.2974 7.0805L18.3177 7.05593C19.6146 5.48213 19.5279 3.14236 18.0572 1.67126C16.5862 0.201238 14.2475 0.115299 12.6747 1.41142L12.6501 1.43167L12.6231 1.44864C12.5956 1.46602 12.5775 1.4807 12.5648 1.49342L2.24939 11.809C2.24873 11.8098 2.24806 11.8105 2.24738 11.8113L2.23786 11.822L2.22775 11.8322C-0.0361874 14.1027 -0.0725353 17.7177 2.10306 19.8937C3.14054 20.9312 4.52324 21.5 6.01378 21.5C6.03408 21.5 6.05127 21.4997 6.07245 21.4993L4.89791 14.8052ZM10.1133 19.8311C10.1143 19.8297 10.1161 19.8271 10.1186 19.8236L10.1133 19.8311ZM2.28554 11.7629C2.28479 11.7639 2.28363 11.7656 2.28207 11.7678L2.28554 11.7629ZM18.0563 7.34546C18.0569 7.3449 18.0574 7.34434 18.058 7.34377L18.4106 7.69824C18.4103 7.69848 18.41 7.6987 18.4099 7.69902L18.0563 7.34546ZM4.36048 14.4105L4.36877 14.4043C4.36434 14.4077 4.36136 14.4098 4.36048 14.4105ZM4.93537 14.776C4.93557 14.7759 4.93566 14.7758 4.93558 14.7759L4.93552 14.7759L4.9354 14.776L4.93537 14.776ZM2.28595 11.7623L2.28689 11.7609L2.28743 11.7602C2.28742 11.7602 2.28655 11.7614 2.28595 11.7623Z" fill="#96A0B5" stroke="#96A0B5"/>
</svg>
