<svg width="136" height="46" viewBox="0 0 136 46" fill="none" xmlns="http://www.w3.org/2000/svg">
<path d="M1.37264 19.2707C0.488181 20.1551 0.000811045 21.3317 1.12444e-07 22.5831C-0.000270199 23.8335 0.48683 25.0082 1.37183 25.8927C2.25588 26.7767 3.43241 27.2629 4.68327 27.2626C4.94602 27.2634 5.21416 27.2361 5.52867 27.1755C5.62436 27.1583 5.70789 27.1373 5.79466 27.1163C5.98752 27.0641 6.17377 27.0062 6.34001 26.9445C6.42975 26.9101 6.52179 26.875 6.61465 26.8335C6.77778 26.7589 6.95051 26.6654 7.13797 26.5497C7.17635 26.5274 7.21027 26.5078 7.24514 26.4885C7.2669 26.476 7.2888 26.4656 7.31043 26.4522L8.09744 25.7655C8.18664 25.6678 8.27503 25.5563 8.36775 25.4355L8.40437 25.3878C8.42627 25.3597 8.45736 25.323 8.48966 25.2875L8.51723 25.2556L8.54413 25.2152L8.57345 25.186C8.62522 25.13 8.67806 25.075 8.73132 25.0218C10.0019 23.7512 11.7969 23.0384 13.6558 23.0648C15.5069 23.0909 17.2722 23.8508 18.4995 25.1506L18.5362 25.1888L18.5682 25.2352C18.5966 25.2771 18.6305 25.3153 18.6636 25.3529C18.703 25.3986 18.7415 25.4443 18.7789 25.4922L18.8449 25.5747C18.9015 25.6456 18.9566 25.7146 19.0156 25.7824L19.8118 26.4654C19.8339 26.4804 19.8573 26.4906 19.8804 26.5032L19.9394 26.5356C20.1133 26.6417 20.2904 26.7459 20.4789 26.8289C20.5835 26.8792 20.6668 26.9102 20.7533 26.9403C20.9415 27.0107 21.1201 27.0671 21.3125 27.1159C21.3961 27.1368 21.4792 27.1592 21.5664 27.1749C21.8952 27.2359 22.1658 27.2634 22.4182 27.2637C23.6686 27.2634 24.8439 26.7765 25.7298 25.8907C26.6139 25.0066 27.1025 23.8304 27.1035 22.58C27.1021 19.9999 25.0005 17.9001 22.4178 17.9001C22.1564 17.8999 21.8883 17.9277 21.5714 17.9873C21.4789 18.0047 21.3957 18.0258 21.3123 18.0472C21.1224 18.0953 20.9392 18.1521 20.7647 18.2163C20.6708 18.2521 20.5765 18.2871 20.4905 18.3263C20.3168 18.4059 20.1424 18.5001 19.9696 18.6096L19.868 18.6666C19.8453 18.6797 19.8219 18.6917 19.7993 18.7046L19.0025 19.3962C18.9189 19.4869 18.8393 19.5901 18.755 19.6993L18.6969 19.7734C18.6785 19.7992 18.6459 19.8365 18.6132 19.8734L18.5894 19.9022L18.5589 19.9475L18.529 19.9773C18.4766 20.0336 18.424 20.0875 18.3701 20.1414C17.0997 21.4118 15.3055 22.1246 13.4472 22.0979C11.5951 22.072 9.82878 21.3108 8.60116 20.011L8.56453 19.9723L8.53426 19.9282C8.50547 19.8854 8.47155 19.8485 8.43843 19.8096C8.3991 19.7639 8.36058 19.7178 8.32369 19.6709C8.2999 19.6445 8.25962 19.5936 8.22056 19.5434C8.17556 19.4869 8.13285 19.431 8.08203 19.3804L8.06419 19.3624L7.30205 18.7069C7.28367 18.6957 7.17824 18.6374 7.14608 18.6186C6.95753 18.5018 6.78143 18.4068 6.61491 18.3303C6.52247 18.2872 6.43881 18.2537 6.34879 18.2222C6.16566 18.154 5.98239 18.0959 5.78898 18.0444C5.70775 18.0254 5.61193 18.0033 5.51786 17.9841C5.21633 17.9289 4.94385 17.9007 4.68179 17.9001C3.43336 17.8993 2.2575 18.3859 1.37331 19.2701L1.37264 19.2707Z" fill="#338DE0"/>
<path d="M60.5841 18.0618H64.1742L68.5541 5.85553H65.347L62.81 13.4187C62.5945 14.1366 62.3791 15.2615 62.3791 15.2615H62.3312C62.3312 15.2615 62.1158 14.1366 61.9005 13.4187L59.3634 5.85553H56.1562L60.5841 18.0618ZM70.5167 3.77318H73.5563V1.06873H70.5167V3.77318ZM70.5167 18.0618H73.5563V5.85553H70.5167V18.0618ZM76.0693 11.9586C76.0693 15.4291 78.6063 18.349 82.6512 18.349C84.3983 18.349 86.3131 17.7029 87.5576 16.6019L86.3609 14.4238C85.3796 15.2137 84.1111 15.7642 82.8665 15.7642C81.0236 15.7642 79.3961 14.6632 79.2046 12.533H87.6054C87.6533 12.1501 87.7011 11.7433 87.7011 11.3603C87.7011 8.12925 85.7865 5.56832 82.2921 5.56832C78.6302 5.56832 76.0693 8.20102 76.0693 11.9586ZM79.2765 10.4508C79.5637 8.89504 80.6645 7.86597 82.2203 7.86597C83.5846 7.86597 84.6377 8.82327 84.6616 10.4508H79.2765ZM92.5838 18.0618H95.9824L98.0646 11.097C98.2322 10.4508 98.3518 9.78071 98.3518 9.78071H98.3996C98.3996 9.78071 98.5194 10.4508 98.7109 11.097L100.769 18.0618H104.144L107.854 5.85553H104.694L102.564 13.8734C102.373 14.5195 102.301 15.1659 102.301 15.1659H102.253C102.253 15.1659 102.157 14.5195 101.99 13.8734L99.74 5.85553H97.0355L94.7857 13.8654C94.6181 14.5116 94.4985 15.1579 94.4985 15.1579H94.4505C94.4505 15.1579 94.3788 14.5116 94.2113 13.8654L92.0811 5.85553H88.874L92.5838 18.0618ZM57.4727 43.928H60.5123V38.7583C60.5123 38.1359 60.4404 37.7052 60.4404 37.7052H60.4883C61.35 38.8062 62.6184 39.4284 64.0066 39.4284C67.2137 39.4284 69.5833 36.9153 69.5833 33.038C69.5833 29.2565 67.477 26.6477 64.1742 26.6477C62.5227 26.6477 61.0387 27.3896 60.249 28.706H60.201C60.201 28.706 60.249 28.299 60.249 27.8444V26.9349H57.4727V43.928ZM60.4165 33.1099C60.4165 30.4053 61.9005 29.2565 63.504 29.2565C65.2751 29.2565 66.5197 30.7643 66.5197 33.0858C66.5197 35.5032 65.1315 36.8675 63.4561 36.8675C61.4696 36.8675 60.4165 35.0006 60.4165 33.1099ZM72.1681 39.1412H75.2078V34.2107C75.2078 31.9131 76.3086 29.7591 78.7978 29.7591C79.0611 29.7591 79.4202 29.783 79.5398 29.807V26.8152C79.3483 26.7913 79.1569 26.7673 78.9654 26.7673C77.1224 26.7673 75.6385 28.2034 75.088 29.9266H75.0402C75.0402 29.9266 75.088 29.5437 75.088 29.0889V26.9349H72.1681V39.1412ZM80.6407 33.038C80.6407 36.7957 83.6326 39.4284 87.3423 39.4284C91.0521 39.4284 94.0439 36.7957 94.0439 33.038C94.0439 29.3043 91.0521 26.6477 87.3184 26.6477C83.6326 26.6477 80.6407 29.3043 80.6407 33.038ZM83.7282 33.038C83.7282 30.7882 85.3558 29.2326 87.3423 29.2326C89.3288 29.2326 90.9803 30.7882 90.9803 33.038C90.9803 35.3117 89.3288 36.8436 87.3423 36.8436C85.3558 36.8436 83.7282 35.3117 83.7282 33.038ZM96.5569 24.8526H99.5966V22.1481H96.5569V24.8526ZM96.5569 39.2608C96.5569 41.2473 94.9772 41.5106 94.1156 41.5106C93.9002 41.5106 93.7327 41.4867 93.5891 41.4628V44.0237C93.9002 44.0717 94.2113 44.0956 94.4985 44.0956C96.1739 44.0956 99.5966 43.593 99.5966 39.5002V26.9349H96.5569V39.2608ZM102.11 33.038C102.11 36.5085 104.647 39.4284 108.691 39.4284C110.439 39.4284 112.353 38.7822 113.598 37.6813L112.401 35.5032C111.42 36.2931 110.151 36.8436 108.907 36.8436C107.064 36.8436 105.436 35.7426 105.245 33.6124H113.646C113.694 33.2295 113.741 32.8227 113.741 32.4397C113.741 29.2086 111.827 26.6477 108.332 26.6477C104.67 26.6477 102.11 29.2804 102.11 33.038ZM105.317 31.5302C105.604 29.9744 106.705 28.9454 108.261 28.9454C109.625 28.9454 110.678 29.9027 110.702 31.5302H105.317ZM115.537 33.038C115.537 36.5803 118.121 39.4284 122.166 39.4284C124.129 39.4284 126.044 38.6625 127.192 37.4419L126.02 35.2878C125.11 36.1733 123.722 36.8436 122.43 36.8436C120.084 36.8436 118.624 35.0725 118.624 33.0141C118.624 30.9319 120.084 29.2326 122.334 29.2326C123.531 29.2326 124.727 29.7831 125.493 30.5488L126.857 28.4666C125.685 27.1982 123.818 26.6477 122.166 26.6477C118.121 26.6477 115.537 29.5676 115.537 33.038ZM129.993 34.6655C129.993 38.7583 133.367 39.2608 135.067 39.2608C135.474 39.2608 135.761 39.213 136 39.1891V36.5324C135.761 36.5803 135.617 36.5803 135.45 36.5803C134.612 36.5803 133.032 36.2931 133.032 34.2826V29.5198H135.809V27.1024H133.032V23.6081H130.065V27.1024H128.413V29.5198H129.993V34.6655Z" fill="#080A1C"/>
<path d="M41.3679 22.582C41.3679 22.582 38.8139 18.9631 34.6284 21.3045C35.3957 20.8799 39.5606 16.5952 35.1486 13.1223C32.6307 11.3363 29.2262 12.717 29.2262 15.246C29.2262 16.289 30.0718 17.1346 31.1148 17.1346C32.1576 17.1346 33.0031 16.289 33.0031 15.246C33.0031 14.8046 32.8516 14.3985 32.5978 14.0769C33.2687 14.2693 35.0163 15.2441 35.0937 17.3274C35.1394 18.555 34.5611 19.5507 33.5692 20.3182C31.9906 21.5396 29.3549 21.5354 27.5598 19.6029C24.7781 16.7659 25.2598 12.7163 27.693 10.4636C28.9236 9.39516 30.3079 8.78668 31.9741 8.78668C33.5131 8.78668 34.923 9.33825 36.0175 10.2543C40.1264 14.3632 44.2352 18.4721 48.3441 22.5809L48.343 22.582L48.3441 22.5831C44.2352 26.692 40.1264 30.8008 36.0175 34.9097C34.923 35.8258 33.5131 36.3773 31.9741 36.3773C30.3079 36.3773 28.9236 35.7689 27.693 34.7005C25.2598 32.4477 24.7781 28.3982 27.5598 25.5611C29.3549 23.6286 31.9906 23.6245 33.5692 24.8459C34.5611 25.6133 35.1394 26.609 35.0937 27.8366C35.0163 29.9199 33.2687 30.8947 32.5978 31.0871C32.8516 30.7655 33.0031 30.3594 33.0031 29.918C33.0031 28.875 32.1576 28.0294 31.1148 28.0294C30.0718 28.0294 29.2262 28.875 29.2262 29.918C29.2262 32.447 32.6307 33.8278 35.1486 32.0417C39.5606 28.5689 35.3957 24.2841 34.6284 23.8595C38.8139 26.2009 41.3679 22.582 41.3679 22.582Z" fill="#338DE0"/>
<path d="M10.232 28.1761C9.34678 29.0614 8.86022 30.2371 8.86035 31.4877C8.86062 34.0688 10.9597 36.1699 13.5392 36.1704C14.7906 36.1703 15.9676 35.6839 16.8529 34.7986C17.737 33.9145 18.2237 32.7384 18.2237 31.4878C18.2237 28.9072 16.1225 26.806 13.5397 26.804C12.2913 26.8052 11.116 27.2922 10.232 28.1761Z" fill="#338DE0"/>
<path d="M10.232 10.2719C9.34678 11.1572 8.86022 12.3329 8.86035 13.5835C8.86062 16.1645 10.9597 18.2657 13.5392 18.2662C14.7906 18.2661 15.9676 17.7796 16.8529 16.8944C17.737 16.0103 18.2237 14.8342 18.2237 13.5836C18.2237 11.0029 16.1225 8.90181 13.5397 8.89978C12.2913 8.901 11.116 9.38797 10.232 10.2719Z" fill="#338DE0"/>
<path d="M19.2711 1.37209C18.3858 2.25736 17.8993 3.43309 17.8994 4.68368C17.8997 7.26474 19.9988 9.36587 22.5782 9.36641C23.8296 9.36627 25.0067 8.87985 25.892 7.99458C26.776 7.11053 27.2627 5.93441 27.2627 4.68381C27.2627 2.10315 25.1616 0.00202733 22.5788 0C21.3303 0.0012164 20.155 0.488175 19.2711 1.37209Z" fill="#338DE0"/>
<path d="M19.2711 37.0112C18.3858 37.8965 17.8993 39.0722 17.8994 40.3228C17.8997 42.9038 19.9988 45.005 22.5782 45.0055C23.8296 45.0054 25.0067 44.5189 25.892 43.6337C26.776 42.7496 27.2627 41.5735 27.2627 40.3229C27.2627 37.7423 25.1616 35.6411 22.5788 35.6391C21.3303 35.6403 20.155 36.1273 19.2711 37.0112Z" fill="#338DE0"/>
</svg>
