<svg width="4" height="18" viewBox="0 0 4 18" fill="none" xmlns="http://www.w3.org/2000/svg">
<path d="M2 2H0C0 3.10455 0.895402 4 2 4V2ZM2 2V0C0.895402 0 0 0.895448 0 2H2ZM2 2H4C4 0.895448 3.1046 0 2 0V2ZM2 2V4C3.1046 4 4 3.10455 4 2H2ZM2 9H0C0 10.1046 0.895415 11 2 11V9ZM2 9V7C0.895415 7 0 7.89542 0 9H2ZM2 9H4C4 7.89542 3.10458 7 2 7V9ZM2 9V11C3.10458 11 4 10.1046 4 9H2ZM2 16H0C0 17.1046 0.895415 18 2 18V16ZM2 16V14C0.895415 14 0 14.8954 0 16H2ZM2 16H4C4 14.8954 3.10458 14 2 14V16ZM2 16V18C3.10458 18 4 17.1046 4 16H2Z" fill="#96A0B5"/>
</svg>
