<svg width="18" height="20" viewBox="0 0 18 20" fill="none" xmlns="http://www.w3.org/2000/svg">
<path d="M12 14C11.4477 14 11 14.4477 11 15C11 15.5523 11.4477 16 12 16V14ZM17 15V16C17.4045 16 17.7691 15.7564 17.9239 15.3827C18.0787 15.009 17.9931 14.5789 17.7071 14.2929L17 15ZM11 3.34142H10C10 3.76524 10.2672 4.14303 10.6668 4.28426L11 3.34142ZM7 3.34142L7.33325 4.28426C7.73284 4.14302 8 3.76524 8 3.34142H7ZM2.40493 13.5951L1.69784 12.888L1.69783 12.888L2.40493 13.5951ZM1 15L0.292901 14.2929C0.0068984 14.5789 -0.0786613 15.009 0.0761184 15.3827C0.230898 15.7564 0.595536 16 1 16L1 15ZM6 16C6.55228 16 7 15.5523 7 15C7 14.4477 6.55228 14 6 14V16ZM13 15C13 14.4477 12.5523 14 12 14C11.4477 14 11 14.4477 11 15H13ZM7 15C7 14.4477 6.55228 14 6 14C5.44772 14 5 14.4477 5 15H7ZM12 16C12.5523 16 13 15.5523 13 15C13 14.4477 12.5523 14 12 14V16ZM6 14C5.44772 14 5 14.4477 5 15C5 15.5523 5.44772 16 6 16V14ZM12 16H17V14H12V16ZM17.7071 14.2929L16.3022 12.888L14.888 14.3022L16.2929 15.7071L17.7071 14.2929ZM16.3022 12.888C16.1087 12.6945 16 12.432 16 12.1585H14C14 12.9626 14.3195 13.7337 14.888 14.3022L16.3022 12.888ZM16 12.1585V9H14V12.1585H16ZM16 9C16 5.9506 14.0507 3.35905 11.3332 2.39858L10.6668 4.28426C12.6101 4.97113 14 6.82454 14 9H16ZM12 3.34142V3H10V3.34142H12ZM12 3C12 1.34315 10.6569 0 9 0V2C9.55231 2 10 2.44771 10 3H12ZM9 0C7.34311 0 6 1.34315 6 3H8C8 2.44771 8.44769 2 9 2V0ZM6 3V3.34142H8V3H6ZM6.66675 2.39858C3.94933 3.35905 2 5.9506 2 9H4C4 6.82454 5.38991 4.97113 7.33325 4.28426L6.66675 2.39858ZM2 9V12.1585H4V9H2ZM2 12.1585C2 12.4321 1.8913 12.6945 1.69784 12.888L3.11202 14.3022C3.6806 13.7337 4 12.9625 4 12.1585H2ZM1.69783 12.888L0.292901 14.2929L1.7071 15.7071L3.11203 14.3022L1.69783 12.888ZM1 16H6V14H1V16ZM11 15V16H13V15H11ZM11 16C11 17.1046 10.1046 18 9 18V20C11.2092 20 13 18.2092 13 16H11ZM9 18C7.89538 18 7 17.1046 7 16H5C5 18.2092 6.79082 20 9 20V18ZM7 16V15H5V16H7ZM12 14H6V16H12V14Z" fill="#96A0B5"/>
</svg>
