<svg width="24" height="24" viewBox="0 0 24 24" fill="none" xmlns="http://www.w3.org/2000/svg">
<path fill-rule="evenodd" clip-rule="evenodd" d="M1 12C1 18.0751 5.92487 23 12 23C18.0751 23 23 18.0751 23 12C23 5.92487 18.0751 1 12 1C5.92487 1 1 5.92487 1 12ZM21 12C21 16.9706 16.9706 21 12 21C7.02944 21 3 16.9706 3 12C3 7.02944 7.02944 3 12 3C16.9706 3 21 7.02944 21 12Z" fill="#96A0B5"/>
<mask id="mask0_4665_24319" style="mask-type:alpha" maskUnits="userSpaceOnUse" x="1" y="1" width="22" height="22">
<path fill-rule="evenodd" clip-rule="evenodd" d="M1 12C1 18.0751 5.92487 23 12 23C18.0751 23 23 18.0751 23 12C23 5.92487 18.0751 1 12 1C5.92487 1 1 5.92487 1 12ZM21 12C21 16.9706 16.9706 21 12 21C7.02944 21 3 16.9706 3 12C3 7.02944 7.02944 3 12 3C16.9706 3 21 7.02944 21 12Z" fill="white"/>
</mask>
<g mask="url(#mask0_4665_24319)">
<rect width="24" height="24" fill="#96A0B5"/>
</g>
<path d="M7.70718 10.2928C7.31666 9.90229 6.68349 9.90229 6.29297 10.2928C5.90244 10.6833 5.90244 11.3165 6.29297 11.707L10.0858 15.415C10.4763 15.8056 11.1095 15.8056 11.5 15.415L16.7929 9.70711C17.1834 9.31658 17.1834 8.68342 16.7929 8.29289C16.4024 7.90237 15.7692 7.90237 15.3787 8.29289L10.7929 13.2937L7.70718 10.2928Z" fill="#96A0B5"/>
</svg>
